#!OML:ASF H:\Male1\Project 1\Capture day 1\Session 1\Male1.ASF
:FULLY-SPECIFIED
:DEGREES
345
root 15.4865 15.2522 -3.22162 118.351 88.8277 -239.276
lowerback 10.7343 1.45694 -4.15154
upperback 7.80232 2.00148 -1.30107
thorax 2.05693 1.04034 0.808201
lowerneck -10.6339 2.90754 8.25233
upperneck 21.5292 3.30843 -2.32866
head 8.65008 2.11846 -1.79524
rclavicle -1.5704e-014 1.63003e-014
rhumerus -16.42 -1.27291 -79.7224
rradius 74.3265
rwrist -21.0024
rhand -18.8819 -12.101
rfingers 7.12502
rthumb 7.41917 -41.9509
lclavicle -1.5704e-014 1.63003e-014
lhumerus -15.5129 -0.747169 76.9175
lradius 74.5231
lwrist 23.5017
lhand -11.1123 26.2978
lfingers 7.12502
lthumb 14.9123 55.741
rfemur -15.08 1.02273 23.7507
rtibia 64.5746
rfoot -11.6901 -16.6191
rtoes -32.6015
lfemur -17.9193 -9.03292 -21.0935
ltibia 30.5706
lfoot -12.6131 15.8171
ltoes -3.91838
346
root 15.7019 15.2619 -3.28399 119.59 89.2966 -238.21
lowerback 11.033 1.3596 -3.68907
upperback 8.05342 1.91717 -1.06171
thorax 2.16589 1.01296 0.801727
lowerneck -10.7258 3.11051 8.45042
upperneck 21.3037 3.66456 -2.96922
head 8.62437 2.22537 -2.00562
rclavicle 1.37161e-014 -2.22639e-014
rhumerus -15.4355 -0.794391 -79.4804
rradius 73.8229
rwrist -21.1886
rhand -19.1459 -11.9333
rfingers 7.12502
rthumb 7.16433 -41.7921
lclavicle 1.37161e-014 -2.22639e-014
lhumerus -14.9328 -0.623449 77.0929
lradius 74.1073
lwrist 23.2287
lhand -11.6205 25.9062
lfingers 7.12502
lthumb 14.4227 55.3851
rfemur -17.6979 0.932741 24.2577
rtibia 64.738
rfoot -13.2389 -18.1596
rtoes -32.4263
lfemur -17.5469 -8.79909 -21.0242
ltibia 31.3465
lfoot -13.621 15.817
ltoes -4.09284
347
root 15.9156 15.2591 -3.33804 107.051 89.6531 -250.982
lowerback 11.2511 1.35118 -3.45501
upperback 8.26554 1.93275 -0.788476
thorax 2.26787 1.02539 0.950602
lowerneck -10.8984 3.22802 8.59363
upperneck 21.2826 3.90589 -3.56338
head 8.67654 2.28475 -2.20292
rclavicle 1.39149e-015 -3.57812e-015
rhumerus -14.5197 -0.418152 -79.0936
rradius 73.294
rwrist -21.5797
rhand -19.7468 -11.9626
rfingers 7.12502
rthumb 6.58428 -41.8403
lclavicle 1.39149e-015 -3.57812e-015
lhumerus -14.3316 -0.623356 77.4063
lradius 73.6053
lwrist 22.9909
lhand -12.1122 25.3831
lfingers 7.12502
lthumb 13.9489 54.8951
rfemur -20.2093 1.03424 24.7153
rtibia 64.1211
rfoot -14.704 -19.5788
rtoes -31.9503
lfemur -17.3384 -8.4832 -21.0582
ltibia 32.2704
lfoot -14.6891 15.8343
ltoes -3.85525
348
root 16.1304 15.2484 -3.381 44.1907 89.7757 -314.02
lowerback 11.5178 1.38038 -3.42452
upperback 8.39805 1.97335 -0.533687
thorax 2.25488 1.04327 1.1891
lowerneck -10.8337 3.31722 8.73803
upperneck 21.3126 4.10701 -4.00349
head 8.69909 2.34757 -2.35544
rclavicle -1.42131e-014 1.59028e-015
rhumerus -13.8377 -0.122537 -78.7423
rradius 72.8921
rwrist -22.0539
rhand -20.3932 -12.0084
rfingers 7.12502
rthumb 5.96023 -41.9046
lclavicle -1.42131e-014 1.59028e-015
lhumerus -13.9258 -0.730506 77.6629
lradius 73.0607
lwrist 22.8481
lhand -12.6577 24.8313
lfingers 7.12502
lthumb 13.4232 54.3788
rfemur -22.4675 1.34027 25.131
rtibia 62.8211
rfoot -15.9699 -20.9684
rtoes -31.0259
lfemur -17.0779 -8.14923 -21.1569
ltibia 33.1811
lfoot -15.6535 15.8122
ltoes -3.7274
349
root 16.3501 15.2313 -3.42227 45.305 89.5246 -312.985
lowerback 11.8048 1.36856 -3.73359
upperback 8.56987 1.93752 -0.399444
thorax 2.27449 1.01312 1.50035
lowerneck -10.624 3.43226 8.83168
upperneck 21.1971 4.31062 -4.21613
head 8.64168 2.42921 -2.42295
rclavicle 9.44227e-015 -2.96189e-014
rhumerus -13.0617 0.162704 -78.4903
rradius 72.4518
rwrist -22.2787
rhand -20.7448 -11.7586
rfingers 7.12502
rthumb 5.62071 -41.6641
lclavicle 9.44227e-015 -2.96189e-014
lhumerus -13.5713 -0.818335 77.8084
lradius 72.5425
lwrist 22.8017
lhand -13.2927 24.4171
lfingers 7.12502
lthumb 12.811 54.004
rfemur -24.3907 1.62613 25.1027
rtibia 60.9089
rfoot -17.0528 -21.7967
rtoes -29.0793
lfemur -16.6566 -7.82523 -21.6674
ltibia 34.0271
lfoot -16.7419 15.4304
ltoes -2.77753
350
root 16.5698 15.2049 -3.45527 37.8848 88.7582 -320.554
lowerback 11.9568 1.54551 -4.4053
upperback 8.7599 2.12462 -0.341605
thorax 2.36996 1.07821 1.91715
lowerneck -10.6172 3.51509 9.07738
upperneck 21.1531 4.46761 -4.64338
head 8.65145 2.47767 -2.59207
rclavicle -1.41137e-014 4.57205e-015
rhumerus -12.1934 0.300611 -78.3108
rradius 71.9415
rwrist -22.214
rhand -20.8743 -11.516
rfingers 7.12502
rthumb 5.49576 -41.4248
lclavicle -1.41137e-014 4.57205e-015
lhumerus -13.0902 -0.919538 77.9217
lradius 71.9883
lwrist 22.753
lhand -13.9246 23.872
lfingers 7.12502
lthumb 12.2018 53.4961
rfemur -26.2467 2.38186 24.7991
rtibia 58.4104
rfoot -17.4309 -22.5855
rtoes -31.2675
lfemur -16.2012 -7.0202 -22.4043
ltibia 34.7695
lfoot -17.9677 15.082
ltoes -2.16764
351
root 16.7964 15.1845 -3.48878 37.3306 88.4246 -321.325
lowerback 11.9733 1.5651 -4.61673
upperback 8.93749 2.149 -0.296728
thorax 2.54391 1.07874 2.08309
lowerneck -10.6962 3.57882 9.41296
upperneck 21.1985 4.57064 -5.04188
head 8.70645 2.5114 -2.77204
rclavicle -2.21645e-014 6.36111e-015
rhumerus -11.4592 0.248048 -78.2504
rradius 71.5096
rwrist -22.0353
rhand -20.8056 -11.4589
rfingers 7.12502
rthumb 5.562 -41.3659
lclavicle -2.21645e-014 6.36111e-015
lhumerus -12.5329 -1.19437 77.9041
lradius 71.3731
lwrist 22.7007
lhand -14.5614 23.1662
lfingers 7.12502
lthumb 11.5878 52.8258
rfemur -27.741 2.94047 24.6803
rtibia 55.2397
rfoot -18.0723 -22.9829
rtoes -30.6055
lfemur -15.7147 -6.47384 -22.8798
ltibia 35.2817
lfoot -18.9756 15.179
ltoes -4.61949
